<svg xmlns="http://www.w3.org/2000/svg" width="217" height="176.6"><style>.elemento0{stroke:#000;stroke-width:.5;stroke-miterlimit:10}.elemento1{fill:#2bb673}.elemento2{fill:#1c75bc}.elemento3{fill:#27aae1}.elemento4{fill:#2e3192}.elemento5{fill:#92278f}.elemento6{fill:#face41}.elemento7{fill:#be1e2d}.elemento8{fill:#f7941e}.elemento9{fill:#ec008c}.elemento10{fill:#662d91}</style><path class="elemento0" d="M24.1 176.1h-.4v-17.6h.4l7.3 10.8 7.3-10.8h.4v17.6h-.4v-17l-7.2 10.7h-.3L24 159.1v17zM53.2 170.2h-8.9l-2.4 5.9h-.4l7.1-17.9h.4l7.1 17.9h-.4l-2.5-5.9zm-8.7-.4H53l-4.3-11-4.2 11zM64.3 158.5c11.6 0 11.6 17.6 0 17.6h-5.9v-17.6h5.9zm0 17.2c11.1 0 11.1-16.8 0-16.8h-5.6v16.8h5.6z"></path><path class="elemento0" d="M76.1 175.7h9.4v.4H75.7v-17.6h9.7v.4h-9.3v8.2h9.1v.4h-9.1v8.2zM97.2 168.7c0 5.1-3.8 7.5-8.6 7.5v-.4c4.6 0 8.2-2.2 8.2-7V159h-5.4v-.4h5.8v10.1zM111.2 170.2h-8.9l-2.4 5.9h-.4l7.1-17.9h.4l7.1 17.9h-.4l-2.5-5.9zm-8.7-.4h8.6l-4.3-11-4.3 11zm4-13.3l1.5-1.9h.7l-1.7 1.9h-.5zM116.4 176.1v-17.6h.4l11.7 16.9v-16.9h.4v17.6h-.4l-11.6-16.8v16.8h-.5zM138.1 158.5c11.6 0 11.6 17.6 0 17.6h-5.9v-17.6h5.9zm0 17.2c11.1 0 11.1-16.8 0-16.8h-5.6v16.8h5.6z"></path><path class="elemento0" d="M151.8 160.9c1.6-1.7 3.9-2.7 6.3-2.7 2.5 0 4.7 1 6.4 2.7 1.6 1.6 2.6 3.9 2.6 6.4 0 2.5-1 4.8-2.6 6.4-1.6 1.7-3.9 2.7-6.4 2.7-2.5 0-4.7-1-6.3-2.7-1.6-1.6-2.6-3.9-2.6-6.4-.1-2.5 1-4.8 2.6-6.4zm12.4.3c-1.6-1.6-3.7-2.6-6.1-2.6-2.4 0-4.5 1-6.1 2.6-1.5 1.6-2.5 3.7-2.5 6.1 0 2.4 1 4.5 2.5 6.1 1.6 1.6 3.7 2.6 6.1 2.6 2.4 0 4.5-1 6.1-2.6 1.5-1.6 2.5-3.7 2.5-6.1 0-2.4-.9-4.5-2.5-6.1z"></path><path d="M171.9 173.6h8.3v2.5h-10.8v-17.6h2.5v15.1zM192.5 170.9h-6.3c-.7 1.6-1.6 3.7-2.1 5.2h-2.7l7.1-17.8h1.9l7.1 17.8h-2.7l-2.3-5.2zm-5.4-2.4h4.4l-2.2-6.2-2.2 6.2z"></path><g><path class="elemento1" d="M10.7 52.6c-.5 0-1.1-.2-1.5-.6l-6-6.1c-.8-.8-.8-2.2 0-3 .8-.8 2.2-.8 3 0l6 6c.8.8.8 2.2 0 3-.4.5-1 .7-1.5.7zM29.8 71.8c-.5 0-1.1-.2-1.5-.6L15.5 58.4c-.8-.8-.8-2.2 0-3 .8-.8 2.2-.8 3 0l12.8 12.8c.8.8.8 2.2 0 3-.4.4-.9.6-1.5.6zM36.2 90.3c-.5 0-1.1-.2-1.5-.6-.8-.8-.8-2.2 0-3l4.5-4.5-4.5-4.5c-.8-.8-.8-2.2 0-3 .8-.8 2.2-.8 3 0l6 6v3l-6 6c-.4.4-.9.6-1.5.6zM17 109.5c-.5 0-1.1-.2-1.5-.6-.8-.8-.8-2.2 0-3L28.3 93c.8-.8 2.2-.8 3 0 .8.8.8 2.2 0 3l-12.8 12.8c-.4.5-.9.7-1.5.7zM4.6 121.9c-.5 0-1.1-.2-1.5-.6-.8-.8-.8-2.2 0-3l6-6c.8-.8 2.2-.8 3 0 .8.8.8 2.2 0 3l-6 6c-.4.4-.9.6-1.5.6z"></path><path class="elemento2" d="M102.2 27.1c-.5 0-1.1-.2-1.5-.6-.8-.8-.8-2.2 0-3l6.1-6c.8-.8 2.2-.8 3 0 .8.8.8 2.2 0 3l-6.1 6c-.4.4-1 .6-1.5.6zM56.2 73.1c-.5 0-1.1-.2-1.5-.6-.8-.8-.8-2.2 0-3l9.4-9.5c.8-.8 2.2-.8 3 0 .8.8.8 2.2 0 3l-9.4 9.5c-.4.4-1 .6-1.5.6zm15.3-15.3c-.5 0-1.1-.2-1.5-.6-.8-.8-.8-2.2 0-3L80.2 44c.8-.8 2.2-.8 3 0 .8.8.8 2.2 0 3L73 57.1c-.4.4-.9.7-1.5.7zm15.3-15.4c-.5 0-1.1-.2-1.5-.6-.8-.8-.8-2.2 0-3l10.2-10.2c.8-.8 2.2-.8 3 0 .8.8.8 2.2 0 3L88.4 41.8c-.5.4-1 .6-1.6.6zM51.1 90.3c-.5 0-1.1-.2-1.5-.6l-6-6v-3l6.1-6c.8-.8 2.2-.8 3 0 .8.8.8 2.2 0 3L48 82.1l4.5 4.5c.8.8.8 2.2 0 3-.3.5-.9.7-1.4.7zM97.1 136.3c-.5 0-1.1-.2-1.5-.6l-10.2-10.2c-.8-.8-.8-2.2 0-3 .8-.8 2.2-.8 3 0l10.2 10.2c.8.8.8 2.2 0 3-.4.4-1 .6-1.5.6zM81.7 121c-.5 0-1.1-.2-1.5-.6L70 110.1c-.8-.8-.8-2.2 0-3 .8-.8 2.2-.8 3 0l10.2 10.2c.8.8.8 2.2 0 3-.4.5-.9.7-1.5.7zm-16.1-16.1c-.5 0-1.1-.2-1.5-.6l-9.5-9.5c-.8-.8-.8-2.2 0-3 .8-.8 2.2-.8 3 0l9.5 9.5c.8.8.8 2.2 0 3-.4.4-.9.6-1.5.6zM108.2 147.5c-.5 0-1.1-.2-1.5-.6l-6-6c-.8-.8-.8-2.2 0-3 .8-.8 2.2-.8 3 0l6 6c.8.8.8 2.2 0 3-.4.4-.9.6-1.5.6z"></path><g><path class="elemento3" d="M58.7 27.1c-.5 0-1.1-.2-1.5-.6-.8-.8-.8-2.2 0-3l6.1-6c.8-.8 2.2-.8 3 0 .8.8.8 2.2 0 3l-6.1 6c-.4.4-1 .6-1.5.6zM12.7 73.1c-.5 0-1.1-.2-1.5-.6-.8-.8-.8-2.2 0-3l9.3-9.3c.8-.8 2.2-.8 3 0 .8.8.8 2.2 0 3l-9.3 9.3c-.4.4-1 .6-1.5.6zM28 57.8c-.5 0-1.1-.2-1.5-.6-.8-.8-.8-2.2 0-3L36.7 44c.8-.8 2.2-.8 3 0 .8.8.8 2.2 0 3L29.5 57.1c-.4.4-.9.7-1.5.7zm15.7-15.9c-.5 0-1.1-.2-1.5-.6-.8-.8-.8-2.2 0-3l9.9-9.7c.8-.8 2.2-.8 3 0 .8.8.8 2.2 0 3l-9.9 9.7c-.4.4-1 .6-1.5.6zM7.6 90.3c-.5 0-1.1-.2-1.5-.6l-6.1-6v-3l6.1-6c.8-.8 2.2-.8 3 0 .8.8.8 2.2 0 3l-4.5 4.5 4.5 4.5c.8.8.8 2.2 0 3-.4.4-1 .6-1.5.6zM53.6 136.3c-.5 0-1.1-.2-1.5-.6l-9.7-9.7c-.8-.8-.8-2.2 0-3 .8-.8 2.2-.8 3 0l9.7 9.7c.8.8.8 2.2 0 3-.4.4-1 .6-1.5.6zM38.2 121c-.5 0-1.1-.2-1.5-.6l-10.2-10.2c-.8-.8-.8-2.2 0-3 .8-.8 2.2-.8 3 0l10.2 10.2c.8.8.8 2.2 0 3-.4.4-.9.6-1.5.6zM22 104.6c-.5 0-1.1-.2-1.5-.6l-9.3-9.2c-.8-.8-.8-2.2 0-3 .8-.8 2.2-.8 3 0l9.3 9.2c.8.8.8 2.2 0 3-.4.4-.9.6-1.5.6zM64.7 147.5c-.5 0-1.1-.2-1.5-.6l-6-6c-.8-.8-.8-2.2 0-3 .8-.8 2.2-.8 3 0l6 6c.8.8.8 2.2 0 3-.4.4-.9.6-1.5.6z"></path></g><g><path class="elemento4" d="M12.2 10.3c-.5 0-1.1-.2-1.5-.6l-6.1-6c-.8-.8-.8-2.2 0-3 .8-.8 2.2-.8 3 0l6.1 6c.8.8.8 2.2 0 3-.4.4-.9.6-1.5.6zM73.3 71.4c-.5 0-1.1-.2-1.5-.6L58.2 57.2c-.8-.8-.8-2.2 0-3 .8-.8 2.2-.8 3 0l13.6 13.6c.8.8.8 2.2 0 3-.4.4-.9.6-1.5.6zM52.9 51.1c-.5 0-1.1-.2-1.5-.6L37.9 36.9c-.8-.8-.8-2.2 0-3 .8-.8 2.2-.8 3 0l13.6 13.6c.8.8.8 2.2 0 3-.5.3-1 .6-1.6.6zM32.6 30.7c-.5 0-1.1-.2-1.5-.6L17.5 16.5c-.8-.8-.8-2.2 0-3 .8-.8 2.2-.8 3 0L34.1 27c.8.8.8 2.2 0 3-.4.5-1 .7-1.5.7zM80.1 90.3c-.5 0-1.1-.2-1.5-.6-.8-.8-.8-2.2 0-3l4.5-4.5-4.5-4.5c-.8-.8-.8-2.2 0-3 .8-.8 2.2-.8 3 0l6.1 6v3l-6 6.1c-.5.3-1.1.5-1.6.5zM19 151.4c-.5 0-1.1-.2-1.5-.6-.8-.8-.8-2.2 0-3l13.6-13.6c.8-.8 2.2-.8 3 0 .8.8.8 2.2 0 3l-13.6 13.6c-.4.4-.9.6-1.5.6zM39.4 131c-.5 0-1.1-.2-1.5-.6-.8-.8-.8-2.2 0-3l13.6-13.6c.8-.8 2.2-.8 3 0 .8.8.8 2.2 0 3l-13.6 13.6c-.4.4-1 .6-1.5.6zm20.3-20.3c-.5 0-1.1-.2-1.5-.6-.8-.8-.8-2.2 0-3l13.6-13.6c.8-.8 2.2-.8 3 0 .8.8.8 2.2 0 3L61.2 110c-.4.4-.9.7-1.5.7zM6.2 164.2c-.5 0-1.1-.2-1.5-.6-.8-.8-.8-2.2 0-3l6-6c.8-.8 2.2-.8 3 0 .8.8.8 2.2 0 3l-6 6c-.4.4-1 .6-1.5.6z"></path></g><g><path class="elemento5" d="M71 27.1c-.5 0-1.1-.2-1.5-.6l-6.1-6c-.8-.8-.8-2.2 0-3 .8-.8 2.2-.8 3 0l6.1 6c.8.8.8 2.2 0 3-.4.4-.9.6-1.5.6zM117.1 73.1c-.5 0-1.1-.2-1.5-.6l-8.5-8.5c-.8-.8-.8-2.2 0-3 .8-.8 2.2-.8 3 0l8.5 8.5c.8.8.8 2.2 0 3-.5.4-1 .6-1.5.6zm-15.4-15.3c-.5 0-1.1-.2-1.5-.6L90 46.9c-.8-.8-.8-2.2 0-3 .8-.8 2.2-.8 3 0l10.2 10.2c.8.8.8 2.2 0 3-.4.4-.9.7-1.5.7zM86.4 42.4c-.5 0-1.1-.2-1.5-.6L74.6 31.6c-.8-.8-.8-2.2 0-3 .8-.8 2.2-.8 3 0l10.2 10.2c.8.8.8 2.2 0 3-.3.4-.9.6-1.4.6zM122.2 90.3c-.5 0-1.1-.2-1.5-.6-.8-.8-.8-2.2 0-3l4.5-4.5-4.5-4.5c-.8-.8-.8-2.2 0-3 .8-.8 2.2-.8 3 0l6.1 6v3l-6 6c-.5.4-1.1.6-1.6.6zM76.2 136.3c-.5 0-1.1-.2-1.5-.6-.8-.8-.8-2.2 0-3l10.2-10.2c.8-.8 2.2-.8 3 0 .8.8.8 2.2 0 3l-10.2 10.2c-.4.4-1 .6-1.5.6zM91.5 121c-.5 0-1.1-.2-1.5-.6-.8-.8-.8-2.2 0-3l10.2-10.2c.8-.8 2.2-.8 3 0 .8.8.8 2.2 0 3L93 120.3c-.4.5-1 .7-1.5.7zm17-17.1c-.5 0-1.1-.2-1.5-.6-.8-.8-.8-2.2 0-3l8.5-8.5c.8-.8 2.2-.8 3 0 .8.8.8 2.2 0 3l-8.5 8.5c-.4.4-.9.6-1.5.6zM65 147.5c-.5 0-1.1-.2-1.5-.6-.8-.8-.8-2.2 0-3l6-6c.8-.8 2.2-.8 3 0 .8.8.8 2.2 0 3l-6.1 6c-.3.4-.9.6-1.4.6z"></path></g><g><path class="elemento6" d="M206.4 52.6c-.5 0-1.1-.2-1.5-.6-.8-.8-.8-2.2 0-3l6-6c.8-.8 2.2-.8 3 0 .8.8.8 2.2 0 3l-6 6.1c-.4.3-1 .5-1.5.5zM187.2 71.8c-.5 0-1.1-.2-1.5-.6-.8-.8-.8-2.2 0-3l12.8-12.8c.8-.8 2.2-.8 3 0 .8.8.8 2.2 0 3l-12.8 12.8c-.4.4-1 .6-1.5.6zM180.8 90.3c-.5 0-1.1-.2-1.5-.6l-6-6v-3l6-6c.8-.8 2.2-.8 3 0 .8.8.8 2.2 0 3l-4.5 4.5 4.5 4.5c.8.8.8 2.2 0 3-.4.4-.9.6-1.5.6zM200 109.5c-.5 0-1.1-.2-1.5-.6l-12.8-12.8c-.8-.8-.8-2.2 0-3 .8-.8 2.2-.8 3 0l12.8 12.8c.8.8.8 2.2 0 3-.4.4-1 .6-1.5.6zM212.4 121.9c-.5 0-1.1-.2-1.5-.6l-6-6c-.8-.8-.8-2.2 0-3 .8-.8 2.2-.8 3 0l6 6c.8.8.8 2.2 0 3-.4.4-.9.6-1.5.6z"></path></g><g><path class="elemento7" d="M114.9 27.1c-.5 0-1.1-.2-1.5-.6l-6.1-6c-.8-.8-.8-2.2 0-3 .8-.8 2.2-.8 3 0l6.1 6c.8.8.8 2.2 0 3-.5.4-1 .6-1.5.6zM160.9 73.1c-.5 0-1.1-.2-1.5-.6l-9.4-9.4c-.8-.8-.8-2.2 0-3 .8-.8 2.2-.8 3 0l9.4 9.4c.8.8.8 2.2 0 3-.4.4-1 .6-1.5.6zm-15.4-15.3c-.5 0-1.1-.2-1.5-.6L133.8 47c-.8-.8-.8-2.2 0-3 .8-.8 2.2-.8 3 0L147 54.1c.8.8.8 2.2 0 3-.4.4-.9.7-1.5.7zm-15.3-15.4c-.5 0-1.1-.2-1.5-.6l-10.2-10.2c-.8-.8-.8-2.2 0-3 .8-.8 2.2-.8 3 0l10.2 10.2c.8.8.8 2.2 0 3-.4.4-1 .6-1.5.6zM166 90.3c-.5 0-1.1-.2-1.5-.6-.8-.8-.8-2.2 0-3l4.5-4.5-4.5-4.5c-.8-.8-.8-2.2 0-3 .8-.8 2.2-.8 3 0l6.1 6v3l-6 6c-.5.4-1.1.6-1.6.6zM120 136.3c-.5 0-1.1-.2-1.5-.6-.8-.8-.8-2.2 0-3l10.2-10.2c.8-.8 2.2-.8 3 0 .8.8.8 2.2 0 3l-10.2 10.2c-.4.4-1 .6-1.5.6zm15.3-15.3c-.5 0-1.1-.2-1.5-.6-.8-.8-.8-2.2 0-3l10.2-10.2c.8-.8 2.2-.8 3 0 .8.8.8 2.2 0 3l-10.2 10.2c-.4.4-1 .6-1.5.6zm16.1-16.2c-.5 0-1.1-.2-1.5-.6-.8-.8-.8-2.2 0-3l9.4-9.4c.8-.8 2.2-.8 3 0 .8.8.8 2.2 0 3l-9.4 9.4c-.4.4-.9.6-1.5.6zM108.8 147.5c-.5 0-1.1-.2-1.5-.6-.8-.8-.8-2.2 0-3l6-6c.8-.8 2.2-.8 3 0 .8.8.8 2.2 0 3l-6 6c-.4.4-.9.6-1.5.6z"></path></g><g><path class="elemento8" d="M158.3 27.1c-.5 0-1.1-.2-1.5-.6l-6.1-6c-.8-.8-.8-2.2 0-3 .8-.8 2.2-.8 3 0l6.1 6c.8.8.8 2.2 0 3-.4.4-.9.6-1.5.6zM204.4 73.1c-.5 0-1.1-.2-1.5-.6l-9.2-9.2c-.8-.8-.8-2.2 0-3 .8-.8 2.2-.8 3 0l9.2 9.2c.8.8.8 2.2 0 3-.4.4-1 .6-1.5.6zM189 57.8c-.5 0-1.1-.2-1.5-.6L177.3 47c-.8-.8-.8-2.2 0-3 .8-.8 2.2-.8 3 0l10.2 10.2c.8.8.8 2.2 0 3-.4.3-.9.6-1.5.6zm-15.9-15.9c-.5 0-1.1-.2-1.5-.6l-9.6-9.7c-.8-.8-.8-2.2 0-3 .8-.8 2.2-.8 3 0l9.6 9.7c.8.8.8 2.2 0 3-.4.4-1 .6-1.5.6zM209.5 90.3c-.5 0-1.1-.2-1.5-.6-.8-.8-.8-2.2 0-3l4.5-4.5-4.5-4.5c-.8-.8-.8-2.2 0-3 .8-.8 2.2-.8 3 0l6.1 6v3l-6.1 6c-.4.4-1 .6-1.5.6zM163.5 136.3c-.5 0-1.1-.2-1.5-.6-.8-.8-.8-2.2 0-3l9.7-9.7c.8-.8 2.2-.8 3 0 .8.8.8 2.2 0 3l-9.7 9.7c-.4.4-1 .6-1.5.6zm15.3-15.3c-.5 0-1.1-.2-1.5-.6-.8-.8-.8-2.2 0-3l10.2-10.2c.8-.8 2.2-.8 3 0 .8.8.8 2.2 0 3l-10.2 10.2c-.4.4-1 .6-1.5.6zm16.4-16.4c-.5 0-1.1-.2-1.5-.6-.8-.8-.8-2.2 0-3l9.2-9.2c.8-.8 2.2-.8 3 0 .8.8.8 2.2 0 3l-9.2 9.2c-.4.4-1 .6-1.5.6zM152.3 147.5c-.5 0-1.1-.2-1.5-.6-.8-.8-.8-2.2 0-3l6-6c.8-.8 2.2-.8 3 0 .8.8.8 2.2 0 3l-6 6c-.4.4-1 .6-1.5.6z"></path></g><g><path class="elemento9" d="M204.5 10.7c-.5 0-1.1-.2-1.5-.6-.8-.8-.8-2.2 0-3l6.1-6c.8-.8 2.2-.8 3 0 .8.8.8 2.2 0 3l-6.1 6c-.4.4-1 .6-1.5.6zM143.7 71.5c-.5 0-1.1-.2-1.5-.6-.8-.8-.8-2.2 0-3l13.5-13.5c.8-.8 2.2-.8 3 0 .8.8.8 2.2 0 3l-13.5 13.5c-.4.3-1 .6-1.5.6zm20.2-20.3c-.5 0-1.1-.2-1.5-.6-.8-.8-.8-2.2 0-3L175.9 34c.8-.8 2.2-.8 3 0 .8.8.8 2.2 0 3l-13.5 13.5c-.4.5-.9.7-1.5.7zm20.3-20.3c-.5 0-1.1-.2-1.5-.6-.8-.8-.8-2.2 0-3l13.5-13.5c.8-.8 2.2-.8 3 0 .8.8.8 2.2 0 3l-13.5 13.5c-.4.4-.9.6-1.5.6zM136.9 90.3c-.5 0-1.1-.2-1.5-.6l-6-6.1v-3l6.1-6c.8-.8 2.2-.8 3 0 .8.8.8 2.2 0 3l-4.5 4.5 4.5 4.5c.8.8.8 2.2 0 3-.5.5-1 .7-1.6.7zM197.7 151.1c-.5 0-1.1-.2-1.5-.6L182.7 137c-.8-.8-.8-2.2 0-3 .8-.8 2.2-.8 3 0l13.5 13.5c.8.8.8 2.2 0 3-.4.3-1 .6-1.5.6zm-20.3-20.3c-.5 0-1.1-.2-1.5-.6l-13.5-13.5c-.8-.8-.8-2.2 0-3 .8-.8 2.2-.8 3 0l13.5 13.5c.8.8.8 2.2 0 3-.4.4-.9.6-1.5.6zm-20.2-20.3c-.5 0-1.1-.2-1.5-.6l-13.5-13.5c-.8-.8-.8-2.2 0-3 .8-.8 2.2-.8 3 0l13.5 13.5c.8.8.8 2.2 0 3-.4.4-1 .6-1.5.6zM210.5 163.9c-.5 0-1.1-.2-1.5-.6l-6-6.1c-.8-.8-.8-2.2 0-3 .8-.8 2.2-.8 3 0l6.1 6c.8.8.8 2.2 0 3-.5.5-1 .7-1.6.7z"></path></g><g><path class="elemento10" d="M146 27.1c-.5 0-1.1-.2-1.5-.6-.8-.8-.8-2.2 0-3l6.1-6c.8-.8 2.2-.8 3 0 .8.8.8 2.2 0 3l-6.1 6c-.4.4-1 .6-1.5.6zM100 73.1c-.5 0-1.1-.2-1.5-.6-.8-.8-.8-2.2 0-3l8.6-8.6c.8-.8 2.2-.8 3 0 .8.8.8 2.2 0 3l-8.6 8.6c-.4.4-1 .6-1.5.6zm15.3-15.3c-.5 0-1.1-.2-1.5-.6-.8-.8-.8-2.2 0-3L124 43.9c.8-.8 2.2-.8 3 0 .8.8.8 2.2 0 3l-10.2 10.2c-.4.4-.9.7-1.5.7zm15.4-15.4c-.5 0-1.1-.2-1.5-.6-.8-.8-.8-2.2 0-3l10.2-10.2c.8-.8 2.2-.8 3 0 .8.8.8 2.2 0 3l-10.2 10.2c-.5.4-1 .6-1.5.6zM94.9 90.3c-.5 0-1.1-.2-1.5-.6l-6-6v-3l6.1-6c.8-.8 2.2-.8 3 0 .8.8.8 2.2 0 3L92 82.2l4.5 4.5c.8.8.8 2.2 0 3-.5.4-1.1.6-1.6.6zM140.9 136.3c-.5 0-1.1-.2-1.5-.6l-10.2-10.2c-.8-.8-.8-2.2 0-3 .8-.8 2.2-.8 3 0l10.2 10.2c.8.8.8 2.2 0 3-.4.4-1 .6-1.5.6zM125.5 121c-.5 0-1.1-.2-1.5-.6l-10.2-10.2c-.8-.8-.8-2.2 0-3 .8-.8 2.2-.8 3 0l10.2 10.2c.8.8.8 2.2 0 3-.4.4-.9.6-1.5.6zm-17-17c-.5 0-1.1-.2-1.5-.6l-8.6-8.5c-.8-.8-.8-2.2 0-3 .8-.8 2.2-.8 3 0l8.6 8.5c.8.8.8 2.2 0 3-.4.4-.9.6-1.5.6zM152 147.5c-.5 0-1.1-.2-1.5-.6l-6.1-6c-.8-.8-.8-2.2 0-3 .8-.8 2.2-.8 3 0l6 6c.8.8.8 2.2 0 3-.3.4-.8.6-1.4.6z"></path></g></g></svg>